<svg width="170" height="80" viewBox="0 0 170 80" fill="none" xmlns="http://www.w3.org/2000/svg">
<path d="M12.2272 0C18.9949 0 24.4544 5.46366 24.4544 12.2055C24.4544 18.9223 18.9949 24.3859 12.2272 24.3859C5.45947 24.3859 1.53557e-06 18.9223 1.53557e-06 12.2055C1.53557e-06 5.46366 5.45947 0 12.2272 0Z" transform="translate(86.1965)" fill="#DC1E35"/>
<path d="M148.464 2.09512C149.068 0.841993 149.043 0.415927 148.741 0.190364C148.389 -0.0853255 148.062 0.115176 147.206 0.992368C128.715 19.7643 116.638 25.4034 98.4235 25.4034C74.5477 25.4034 64.8364 7.08259 40.9859 1.19287C27.8781 -2.01515 11.9274 1.59387 1.31041 7.88459C0.555647 8.33572 -0.1488 8.6866 0.0273119 9.23798C0.153106 9.66404 0.530488 9.71417 1.81359 9.51367C40.7846 3.19788 47.2756 26.3808 75.5541 36.7818C119.607 52.9973 144.54 10.1152 148.464 2.09512Z" transform="translate(0 12.1157)" fill="#DC1E35"/>
<path d="M143.129 7.79448C143.129 6.89222 142.474 6.2406 141.569 6.2406C140.663 6.2406 140.009 6.89222 140.009 7.79448C140.009 8.69673 140.663 9.34836 141.569 9.34836C142.5 9.34836 143.129 8.69673 143.129 7.79448ZM142.877 11.7042H140.26V24.1854H142.877V11.7042ZM137.644 11.7042H134.499L129.14 17.2932V5.96491H126.524V24.1854H129.14V20.6767L131.103 18.5965L135.153 24.1854H138.021L132.813 16.8922L137.644 11.7042ZM113.768 11.7042H111.152V24.1854H113.768V17.4185C113.768 15.0877 115.076 13.7845 117.039 13.7845C118.724 13.7845 120.033 15.0877 120.033 16.9173V24.2105H122.649V16.8922C122.649 13.5088 120.561 11.4286 117.567 11.4286C115.227 11.4286 113.768 12.9824 113.768 12.9824V11.7042ZM101.491 22.1052C100.057 22.1052 99.2767 21.3283 99.2767 20.5514C99.2767 19.6491 99.9309 19.0225 100.837 18.8722L104.887 18.2205V18.4712C104.887 20.802 103.579 22.1052 101.491 22.1052ZM107.479 24.1854V16.1153C107.479 13.5088 105.39 11.4286 102.245 11.4286C98.9748 11.4286 97.2892 13.7594 97.2892 13.7594L98.9748 15.4386C98.9748 15.4386 100.031 13.7594 102.245 13.7594C103.805 13.7594 104.862 14.812 104.862 16.0902L100.283 16.8672C98.0691 17.2682 96.635 18.6967 96.635 20.7769C96.635 22.6065 98.4716 24.411 101.063 24.411C103.403 24.411 104.862 22.8571 104.862 22.8571V24.1604H107.479V24.1854ZM88.1565 22.1052C86.1941 22.1052 84.3575 20.2757 84.3575 17.9449C84.3575 15.614 86.1941 13.7845 88.1565 13.7845C90.1189 13.7845 91.9555 15.614 91.9555 17.9449C91.9555 20.2757 90.1189 22.1052 88.1565 22.1052ZM88.4081 11.4286C85.9174 11.4286 84.3575 13.1078 84.3575 13.1078V5.93985H81.741V24.1604H84.3575V22.7318C84.3575 22.7318 85.9174 24.411 88.4081 24.411C91.6788 24.411 94.5469 21.5539 94.5469 17.8947C94.5469 14.2857 91.6788 11.4286 88.4081 11.4286ZM78.093 13.1328C78.093 13.1328 76.7847 11.4536 74.0424 11.4536C71.4259 11.4536 69.6145 13.2832 69.6145 15.0877C69.6145 19.4987 76.0048 18.2205 76.0048 20.5514C76.0048 21.4536 75.3507 22.1052 73.9166 22.1052C71.9542 22.1052 70.7718 20.5514 70.7718 20.5514L69.0861 22.2306C69.0861 22.2306 70.646 24.4361 73.9166 24.4361C76.7847 24.4361 78.6213 22.6065 78.6213 20.5263C78.6213 16.1153 72.231 17.3935 72.231 15.0626C72.231 14.411 72.8851 13.7594 74.0676 13.7594C75.5016 13.7594 76.4073 14.812 76.4073 14.812L78.093 13.1328ZM59.8277 22.1052C57.8653 22.1052 56.0287 20.2757 56.0287 17.9449C56.0287 15.614 57.8653 13.7845 59.8277 13.7845C61.7901 13.7845 63.6267 15.614 63.6267 17.9449C63.6015 20.2757 61.7901 22.1052 59.8277 22.1052ZM59.5509 11.4286C56.2803 11.4286 53.4122 14.2857 53.4122 17.9449C53.4122 21.5789 56.2803 24.4611 59.5509 24.4611C62.0417 24.4611 63.6015 22.7819 63.6015 22.7819V24.2105H66.218V5.98997H63.6015V13.1328C63.6015 13.1328 62.0417 11.4286 59.5509 11.4286ZM41.663 11.7042H39.0465V24.1854H41.663V17.4185C41.663 15.0877 42.9713 13.7845 44.9337 13.7845C46.6193 13.7845 47.9276 15.0877 47.9276 16.9173V24.2105H50.5441V16.8922C50.5441 13.5088 48.4559 11.4286 45.462 11.4286C43.1222 11.4286 41.663 12.9824 41.663 12.9824V11.7042ZM29.3855 22.1052C27.9515 22.1052 27.1715 21.3283 27.1715 20.5514C27.1715 19.6491 27.8257 19.0225 28.7314 18.8722L32.7819 18.2205V18.4712C32.7819 20.802 31.4737 22.1052 29.3855 22.1052ZM35.3985 24.1854V16.1153C35.3985 13.5088 33.3103 11.4286 30.1654 11.4286C26.8948 11.4286 25.2091 13.7594 25.2091 13.7594L26.8948 15.4386C26.8948 15.4386 27.9515 13.7594 30.1654 13.7594C31.7253 13.7594 32.7819 14.812 32.7819 16.0902L28.203 16.8672C25.9891 17.2682 24.555 18.6967 24.555 20.7769C24.555 22.6065 26.3916 24.411 28.983 24.411C31.3227 24.411 32.7819 22.8571 32.7819 22.8571V24.1604H35.3985V24.1854ZM21.4102 5.96491H18.7936V24.1854H21.4102V5.96491ZM15.1456 13.1328C15.1456 13.1328 13.8374 11.4536 11.095 11.4536C8.47852 11.4536 6.66709 13.2832 6.66709 15.0877C6.66709 19.4987 13.0574 18.2205 13.0574 20.5514C13.0574 21.4536 12.4033 22.1052 10.9692 22.1052C9.00686 22.1052 7.82439 20.5514 7.82439 20.5514L6.13875 22.2306C6.13875 22.2306 7.6986 24.4361 10.9692 24.4361C13.8374 24.4361 15.6739 22.6065 15.6739 20.5263C15.6739 16.1153 9.28361 17.3935 9.28361 15.0626C9.28361 14.411 9.93774 13.7594 11.1202 13.7594C12.5543 13.7594 13.46 14.812 13.46 14.812L15.1456 13.1328ZM0.528336 3.63408H2.49072L5.23304 1.5297e-06H2.49072L0.528336 3.63408ZM7.67786e-07 24.1854H2.86811V5.96491H7.67786e-07V24.1854Z" transform="translate(26.8713 55.5386)" fill="#DC1E35"/>
</svg>
